<?xml version="1.0" encoding="UTF-8" standalone="no"?>
<svg width="209px" height="61px" viewBox="0 0 209 61" version="1.1" xmlns="http://www.w3.org/2000/svg">
    <g stroke="none" stroke-width="1" fill="none" fill-rule="evenodd">
        <g>
            <rect fill="#131211" x="167.993864" y="17.2051282" width="13.9135436" height="26.5897436"></rect>
            <path d="M181.927197,3.12820513 L181.927197,17.2051282 L195.86053,17.2051282 L195.86053,43.7948718 L181.927197,43.7948718 L181.927197,57.8717949 L208.225926,57.8717949 L208.225926,3.12820513 L181.927197,3.12820513 Z" fill="#131211"></path>
            <rect fill="#E60000" x="155.608679" y="56.3076923" width="52.6172474" height="4.69230769"></rect>
            <rect fill="#E60000" x="155.608679" y="0" width="52.6172474" height="4.69230769"></rect>
            <path d="M15.2775465,29.7110172 C14.7893826,29.3191184 14.2535528,28.9886614 13.6700573,28.7163249 C13.0865617,28.4439885 12.4767677,28.3061597 11.8439627,28.3061597 C11.2078703,28.3061597 10.6112255,28.4290432 10.0507411,28.6764708 C9.49025659,28.925559 9.00209269,29.2676402 8.58953666,29.7110172 C8.17369334,30.1527336 7.85153804,30.6658554 7.61978346,31.2487218 C7.38802888,31.8332488 7.27297342,32.4758964 7.27297342,33.1766646 C7.27297342,34.6313397 7.70525324,35.8136785 8.56981287,36.7220202 C9.43437251,37.6320224 10.5619161,38.0870236 11.9507999,38.0870236 C12.5375828,38.0870236 13.1260093,37.9674612 13.7242977,37.7349789 C14.3209425,37.5024966 14.8386921,37.1637366 15.2775465,36.7220202 L15.2775465,42.721725 C14.5461224,43.1136238 13.7834691,43.3975843 12.9928737,43.5785884 C12.2006346,43.7595925 11.401821,43.8525855 10.59972,43.8525855 C9.21083617,43.8525855 7.89920388,43.5918731 6.6681104,43.0704485 C5.43866058,42.5540056 4.35385191,41.8250074 3.41861535,40.8900963 C2.47680418,39.9551852 1.74044921,38.8525547 1.20626312,37.5805442 C0.670433387,36.3068731 0.402518519,34.9169609 0.402518519,33.4108075 C0.402518519,31.8016976 0.670433387,30.3270954 1.20626312,28.9886614 C1.74044921,27.6518879 2.48502243,26.5110639 3.43340819,25.5628681 C4.38508125,24.6130117 5.49947561,23.87405 6.77987857,23.3393406 C8.05863788,22.8079525 9.42944156,22.5422584 10.8922896,22.5422584 C11.6713795,22.5422584 12.4323892,22.6385725 13.1753188,22.8328613 C13.9182483,23.0288107 14.6200867,23.3210742 15.2775465,23.7096518 L15.2775465,29.7110172 Z M29.3488298,22.5422584 C30.8593437,22.5422584 32.297537,22.7730801 33.6617661,23.2430265 C35.0276388,23.7096518 36.2258593,24.3971353 37.2613585,25.3071375 C38.2968577,26.2154792 39.1203261,27.333055 39.7268327,28.6582043 C40.3382704,29.9816931 40.6423455,31.5011312 40.6423455,33.2148581 C40.6423455,34.9020156 40.3382704,36.4098296 39.7268327,37.7349789 C39.1203261,39.0584676 38.2968577,40.1760434 37.2613585,41.0860457 C36.2258593,41.9943874 35.0276388,42.6818708 33.6617661,43.1501567 C32.297537,43.6184425 30.8593437,43.8525855 29.3488298,43.8525855 C27.8383159,43.8525855 26.4066972,43.6184425 25.0539737,43.1501567 C23.7012501,42.6818708 22.501386,41.9943874 21.4527376,41.0860457 C20.4073766,40.1760434 19.5773336,39.0667706 18.9691832,37.754906 C18.3593893,36.4447019 18.0536705,34.9319062 18.0536705,33.2148581 C18.0536705,31.5011312 18.3593893,29.9816931 18.9691832,28.6582043 C19.5773336,27.333055 20.3991583,26.2154792 21.4363011,25.3071375 C22.473444,24.3971353 23.6716645,23.7096518 25.0358935,23.2430265 C26.4001226,22.7730801 27.8383159,22.5422584 29.3488298,22.5422584 Z M29.3488298,28.6963979 C28.6667153,28.6963979 28.0634959,28.820942 27.5391717,29.066709 C27.0148475,29.3141366 26.5727058,29.6379513 26.206172,30.0414742 C25.8396381,30.4433365 25.5585741,30.9166042 25.3646234,31.4629376 C25.1690291,32.0076105 25.0720538,32.5921375 25.0720538,33.2148581 C25.0720538,34.4885292 25.4435186,35.5529661 26.1864482,36.4098296 C26.9293778,37.2683536 27.9846007,37.6967854 29.3488298,37.6967854 C30.7114152,37.6967854 31.7666382,37.2683536 32.5112114,36.4098296 C33.254141,35.5529661 33.6256058,34.4885292 33.6256058,33.2148581 C33.6256058,32.5921375 33.5286305,32.0076105 33.3346798,31.4629376 C33.1390856,30.9166042 32.8580215,30.4433365 32.4931313,30.0414742 C32.1282411,29.6379513 31.6828121,29.3141366 31.1584879,29.066709 C30.6325201,28.820942 30.0293007,28.6963979 29.3488298,28.6963979 Z M50.3300156,25.6973758 L50.4023362,25.6973758 C51.1797824,24.5798 52.0591349,23.7727541 53.0338191,23.2812201 C54.0068596,22.7863648 55.1031738,22.5422584 56.3244054,22.5422584 C57.6869908,22.5422584 58.9230152,22.846146 60.0341223,23.4555818 C61.1435857,24.0666782 62.0360874,25.0348011 62.7182019,26.3582898 C63.3542943,25.1128487 64.2484396,24.1646529 65.4055688,23.5137024 C66.5626981,22.8677336 67.7888606,22.5422584 69.0791255,22.5422584 C70.272415,22.5422584 71.2783285,22.7365472 72.0968659,23.1251248 C72.9104724,23.5137024 73.5679322,24.0616965 74.0676017,24.7608041 C74.5672711,25.4615722 74.928874,26.3001692 75.1458358,27.2749344 C75.3660848,28.2496997 75.4762093,29.3058337 75.4762093,30.4499789 L75.4762093,43.1900108 L68.8243598,43.1900108 L68.8243598,33.6432898 C68.8243598,33.1235257 68.8112106,32.5489623 68.7865559,31.9112964 C68.7635448,31.2752912 68.6715004,30.6824612 68.5120664,30.1377883 C68.354276,29.5931154 68.0863612,29.1331325 67.7099654,28.7545184 C67.3286388,28.3775649 66.7862344,28.1899185 66.0827524,28.1899185 C65.3020189,28.1899185 64.6987996,28.3642802 64.2714507,28.7163249 C63.8473891,29.066709 63.5350957,29.5084254 63.3411451,30.0414742 C63.1471944,30.5712018 63.0239207,31.1573894 62.9746112,31.7933947 C62.9269454,32.4310605 62.9039343,33.0487993 62.9039343,33.6432898 L62.9039343,43.1900108 L56.2487975,43.1900108 L56.2487975,33.6432898 C56.2487975,33.1002775 56.232361,32.4958234 56.1945571,31.8332488 C56.1583968,31.1690135 56.0499159,30.5612383 55.8658272,29.9999595 C55.6850257,29.4436625 55.3924561,28.9753767 54.9914056,28.5984232 C54.5870678,28.2231303 54.0216524,28.0354838 53.2902284,28.0354838 C52.5571607,28.0354838 51.9917453,28.2231303 51.5906948,28.5984232 C51.186357,28.9753767 50.8970747,29.4436625 50.7113423,29.9999595 C50.5321845,30.5612383 50.4204164,31.1690135 50.3842561,31.8332488 C50.3448085,32.4958234 50.3300156,33.1002775 50.3300156,33.6432898 L50.3300156,43.1900108 L43.6781661,43.1900108 L43.6781661,23.2015118 L50.3300156,23.2015118 L50.3300156,25.6973758 Z M85.5649299,25.4615722 L85.6388942,25.4615722 C86.2454008,24.4751829 87.0672256,23.7445241 88.1027247,23.261293 C89.1415112,22.7797225 90.2082398,22.5422584 91.304554,22.5422584 C92.6934378,22.5422584 93.9705535,22.8328613 95.1408319,23.4173883 C96.3094667,24.0019153 97.3120929,24.7807311 98.1388486,25.7571569 C98.9705352,26.7269404 99.6115585,27.8644432 100.075068,29.1630231 C100.536933,30.4649242 100.767044,31.8266064 100.767044,33.2563728 C100.767044,34.711048 100.536933,36.0743908 100.075068,37.3447407 C99.6115585,38.6184118 98.9738225,39.7409693 98.1569287,40.7157345 C97.3383913,41.6888392 96.3538452,42.4560309 95.196716,43.0123279 C94.0362994,43.5719461 92.7641147,43.8525855 91.3752309,43.8525855 C90.2789167,43.8525855 89.2121882,43.6450119 88.1799763,43.2282043 C87.1411898,42.8113967 86.2700556,42.1637674 85.5649299,41.2803345 L85.5649299,53.1635029 L78.9114368,53.1635029 L78.9114368,23.2015118 L85.5649299,23.2015118 L85.5649299,25.4615722 Z M89.6214569,28.6963979 C88.9393423,28.6963979 88.3377666,28.820942 87.8117988,29.066709 C87.2874746,29.3141366 86.8453329,29.6379513 86.4771554,30.0414742 C86.1139089,30.4433365 85.8295575,30.9166042 85.6388942,31.4629376 C85.4416562,32.0076105 85.3446809,32.5921375 85.3446809,33.2148581 C85.3446809,34.4885292 85.7161457,35.5529661 86.4574316,36.4098296 C87.2020048,37.2683536 88.2555842,37.6967854 89.6214569,37.6967854 C90.985686,37.6967854 92.0392653,37.2683536 92.7838385,36.4098296 C93.5251244,35.5529661 93.8998765,34.4885292 93.8998765,33.2148581 C93.8998765,32.5921375 93.8012576,32.0076105 93.6073069,31.4629376 C93.410069,30.9166042 93.1306486,30.4433365 92.7641147,30.0414742 C92.3975809,29.6379513 91.9537955,29.3141366 91.4327586,29.066709 C90.9067908,28.820942 90.3052151,28.6963979 89.6214569,28.6963979 Z M123.870181,43.1900108 L117.215045,43.1900108 L117.215045,40.9681439 L117.144368,40.9681439 C116.555941,41.9561938 115.743978,42.6818708 114.693686,43.1501567 C113.648325,43.6184425 112.576666,43.8525855 111.481995,43.8525855 C110.08818,43.8525855 108.819283,43.5653037 107.66051,42.9940614 C106.500094,42.4244797 105.502398,41.6506456 104.66085,40.677541 C103.820945,39.7027758 103.168416,38.5652729 102.703263,37.2683536 C102.243041,35.9681132 102.011287,34.6064309 102.011287,33.1766646 C102.011287,31.7468982 102.243041,30.3918583 102.703263,29.1065631 C103.168416,27.8212679 103.809439,26.6904074 104.624689,25.7173028 C105.441583,24.7441982 106.43106,23.9687035 107.589833,23.3974612 C108.745319,22.8245583 110.014216,22.5422584 111.404744,22.5422584 C112.501058,22.5422584 113.566143,22.7564742 114.604929,23.1832454 C115.640428,23.6116771 116.508275,24.2676094 117.215045,25.1493817 L117.215045,23.2015118 L123.870181,23.2015118 L123.870181,43.1900108 Z M113.158518,28.6963979 C112.476403,28.6963979 111.874827,28.820942 111.350503,29.066709 C110.826179,29.3141366 110.38075,29.6379513 110.014216,30.0414742 C109.654257,30.4433365 109.369906,30.9166042 109.175955,31.4629376 C108.978717,32.0076105 108.886673,32.5921375 108.886673,33.2148581 C108.886673,34.4885292 109.253206,35.5529661 109.999423,36.4098296 C110.743997,37.2683536 111.794289,37.6967854 113.158518,37.6967854 C114.522747,37.6967854 115.579613,37.2683536 116.322543,36.4098296 C117.065473,35.5529661 117.438581,34.4885292 117.438581,33.2148581 C117.438581,32.5921375 117.335031,32.0076105 117.144368,31.4629376 C116.948773,30.9166042 116.669353,30.4433365 116.302819,30.0414742 C115.939573,29.6379513 115.4925,29.3141366 114.968176,29.066709 C114.445495,28.820942 113.838989,28.6963979 113.158518,28.6963979 Z M133.552921,26.4761916 L133.626885,26.4761916 C134.261334,25.2290899 135.101238,24.3273906 136.149887,23.7677724 C137.196892,23.2081542 138.381963,22.930836 139.696882,22.930836 L140.975642,22.930836 L140.975642,29.7475501 C140.508845,29.4635896 140.056842,29.2825855 139.603194,29.2028772 C139.151191,29.1248296 138.674532,29.0882967 138.158427,29.0882967 C137.234696,29.0882967 136.472042,29.2427313 135.875397,29.5532613 C135.278753,29.8654519 134.808669,30.2889019 134.470077,30.82029 C134.129842,31.3549994 133.893156,31.9876835 133.756733,32.7299664 C133.621954,33.4689281 133.552921,34.2660104 133.552921,35.126195 L133.552921,43.1900108 L126.902715,43.1900108 L126.902715,23.2015118 L133.552921,23.2015118 L133.552921,26.4761916 Z M151.389805,43.1900108 L144.739599,43.1900108 L144.739599,29.046782 L142.583131,29.046782 L142.583131,23.2015118 L144.739599,23.2015118 L144.739599,17.2051282 L151.389805,17.2051282 L151.389805,23.2015118 L155.155406,23.2015118 L155.155406,29.046782 L151.389805,29.046782 L151.389805,43.1900108 Z" fill="#131210"></path>
        </g>
    </g>
</svg>